<svg xmlns="http://www.w3.org/2000/svg" viewBox="0 0 64 64" role="img" aria-labelledby="title">
<title>Umoja Afya</title>
<defs><linearGradient id="g" x1="0" y1="0" x2="1" y2="1"><stop stop-color="#27c58a"/><stop offset="1" stop-color="#0b7f68"/></linearGradient></defs>
<circle cx="32" cy="32" r="29" fill="#fff"/>
<circle cx="32" cy="32" r="23" fill="url(#g)"/>
<path d="M32 17c-8.7 0-15.8 7.1-15.8 15.8 0 9 7.1 16.2 15.8 16.2 8.8 0 15.8-7.2 15.8-16.2C47.8 24.1 40.8 17 32 17Zm0 5.7c5.7 0 10.2 4.6 10.2 10.1 0 5.8-4.5 10.5-10.2 10.5s-10.2-4.7-10.2-10.5c0-5.5 4.5-10.1 10.2-10.1Z" fill="#fff"/>
</svg>
